<svg width="31" height="31" viewBox="0 0 31 31" fill="none" xmlns="http://www.w3.org/2000/svg">
<path d="M30.4647 15.9731C30.4647 23.5491 24.8492 29.8122 17.5541 30.8286C16.872 30.9232 16.1741 30.9726 15.4657 30.9726C14.6481 30.9726 13.8451 30.9074 13.0631 30.7813C5.92153 29.6315 0.466797 23.4387 0.466797 15.9731C0.466797 7.68877 7.18274 0.972595 15.4668 0.972595C23.7508 0.972595 30.4668 7.68877 30.4668 15.9731H30.4647Z" fill="#333333"/>
<path d="M17.5541 13.0176V16.2853H21.5963L20.9562 20.6871H17.5541V30.8286C16.872 30.9232 16.1741 30.9726 15.4657 30.9726C14.6481 30.9726 13.8451 30.9075 13.0631 30.7813V20.6871H9.33521V16.2853H13.0631V12.2871C13.0631 9.80666 15.0737 7.79495 17.5551 7.79495V7.79706C17.5625 7.79706 17.5688 7.79495 17.5762 7.79495H21.5973V11.6018H18.9698C18.1889 11.6018 17.5551 12.2356 17.5551 13.0166L17.5541 13.0176Z" fill="#EEEDF2"/>
</svg>
