<svg width="31" height="31" viewBox="0 0 31 31" fill="none" xmlns="http://www.w3.org/2000/svg">
<path d="M15.3315 0.979553H15.2632C7.00022 0.979553 0.301758 7.67999 0.301758 15.9454V16.0137C0.301758 24.2791 7.00022 30.9796 15.2632 30.9796H15.3315C23.5945 30.9796 30.2929 24.2791 30.2929 16.0137V15.9454C30.2929 7.67999 23.5945 0.979553 15.3315 0.979553Z" fill="#333333"/>
<path d="M19.9379 7.08298H10.6578C8.09401 7.08298 6.0083 9.1693 6.0083 11.7339V20.2263C6.0083 22.7909 8.09401 24.8772 10.6578 24.8772H19.9379C22.5017 24.8772 24.5874 22.7909 24.5874 20.2263V11.7339C24.5874 9.1693 22.5017 7.08298 19.9379 7.08298ZM7.6485 11.7339C7.6485 10.0743 8.9987 8.72366 10.6578 8.72366H19.9379C21.597 8.72366 22.9472 10.0743 22.9472 11.7339V20.2263C22.9472 21.8859 21.597 23.2365 19.9379 23.2365H10.6578C8.9987 23.2365 7.6485 21.8859 7.6485 20.2263V11.7339Z" fill="#EEEDF2"/>
<path d="M15.2979 20.3051C17.682 20.3051 19.6227 18.3649 19.6227 15.979C19.6227 13.5932 17.683 11.6529 15.2979 11.6529C12.9127 11.6529 10.973 13.5932 10.973 15.979C10.973 18.3649 12.9127 20.3051 15.2979 20.3051ZM15.2979 13.2947C16.7783 13.2947 17.9825 14.4992 17.9825 15.9801C17.9825 17.461 16.7783 18.6655 15.2979 18.6655C13.8174 18.6655 12.6132 17.461 12.6132 15.9801C12.6132 14.4992 13.8174 13.2947 15.2979 13.2947Z" fill="#EEEDF2"/>
<path d="M20.0231 12.3519C20.6651 12.3519 21.1883 11.8295 21.1883 11.1863C21.1883 10.543 20.6661 10.0207 20.0231 10.0207C19.38 10.0207 18.8578 10.543 18.8578 11.1863C18.8578 11.8295 19.38 12.3519 20.0231 12.3519Z" fill="#EEEDF2"/>
</svg>
