<svg width="31" height="31" viewBox="0 0 31 31" fill="none" xmlns="http://www.w3.org/2000/svg">
<path d="M15.1735 0.650208H15.1052C6.84226 0.650208 0.143799 7.35064 0.143799 15.616V15.6844C0.143799 23.9498 6.84226 30.6502 15.1052 30.6502H15.1735C23.4365 30.6502 30.135 23.9498 30.135 15.6844V15.616C30.135 7.35064 23.4365 0.650208 15.1735 0.650208Z" fill="#333333"/>
<path fill-rule="evenodd" clip-rule="evenodd" d="M13.7708 19.7519C13.7529 19.8139 13.7361 19.8665 13.7225 19.919C12.9292 23.028 12.8409 23.7185 12.0255 25.1627C11.6367 25.849 11.1986 26.4996 10.7142 27.1218C10.6596 27.1923 10.6081 27.2827 10.4988 27.2606C10.379 27.2354 10.3696 27.1271 10.357 27.0314C10.2267 26.0866 10.1542 25.1396 10.1857 24.1852C10.2267 22.9429 10.3801 22.5162 11.9814 15.7811C12.0045 15.678 11.9782 15.5929 11.9446 15.5004C11.5611 14.4662 11.4854 13.4162 11.8206 12.3525C12.5456 10.055 15.1494 9.87943 15.6043 11.7745C15.8849 12.9464 15.1431 14.4809 14.5736 16.7491C14.1018 18.6199 16.3041 19.9506 18.186 18.5842C19.9218 17.325 20.5953 14.3064 20.4671 12.1665C20.215 7.90031 15.5381 6.97855 12.5719 8.35227C9.17067 9.92568 8.39733 14.1425 9.93351 16.0701C10.1279 16.315 10.4946 16.4653 10.4305 16.7133C10.3317 17.0991 10.2445 17.488 10.1373 17.8716C10.0575 18.1575 9.60252 18.2615 9.31357 18.1438C8.74722 17.9147 8.27544 17.5542 7.89297 17.0791C6.58901 15.4636 6.216 12.2685 7.94026 9.56307C9.8505 6.56654 13.4041 5.35363 16.6488 5.7215C20.5239 6.16189 22.9731 8.81052 23.4313 11.8155C23.6404 13.1839 23.4901 16.5588 21.5694 18.9447C19.3597 21.6858 15.7777 21.8677 14.1249 20.1849C13.9978 20.0557 13.8958 19.9054 13.7708 19.7509V19.7519Z" fill="#EEEDF2"/>
</svg>
