<svg width="31" height="31" viewBox="0 0 31 31" fill="none" xmlns="http://www.w3.org/2000/svg">
<path d="M15.5344 0.979553H15.4661C7.20309 0.979553 0.504639 7.67999 0.504639 15.9454V16.0137C0.504639 24.2791 7.20309 30.9796 15.4661 30.9796H15.5344C23.7973 30.9796 30.4958 24.2791 30.4958 16.0137V15.9454C30.4958 7.67999 23.7973 0.979553 15.5344 0.979553Z" fill="#333333"/>
<path d="M6.1849 15.4682C6.22693 15.4472 6.26898 15.4272 6.30995 15.4083C7.02235 15.0783 7.74421 14.7693 8.46502 14.4603C8.50389 14.4603 8.56902 14.4151 8.6058 14.4004C8.66149 14.3762 8.71718 14.3531 8.77287 14.3289C8.88005 14.2826 8.98723 14.2375 9.09335 14.1912C9.3077 14.0998 9.52099 14.0083 9.73534 13.9169L11.0183 13.3672C11.8736 13.0014 12.73 12.6346 13.5853 12.2688C14.4406 11.9031 15.2969 11.5363 16.1522 11.1705C17.0075 10.8047 17.8638 10.4379 18.7191 10.0722C19.5744 9.70639 20.4308 9.33958 21.2861 8.97381C21.4763 8.89183 21.6822 8.76991 21.8861 8.73417C22.0573 8.70369 22.2244 8.64484 22.3967 8.61225C22.7235 8.55024 23.0839 8.52502 23.397 8.6606C23.5052 8.7079 23.6051 8.77412 23.6881 8.85715C24.0852 9.25024 24.0296 9.89558 23.9455 10.4484C23.3602 14.3016 22.775 18.1558 22.1887 22.0089C22.1088 22.5376 21.9995 23.1177 21.5824 23.452C21.2293 23.7347 20.7271 23.7662 20.291 23.6464C19.855 23.5255 19.4704 23.2722 19.0932 23.0231C17.5287 21.9868 15.9631 20.9505 14.3985 19.9141C14.0266 19.6682 13.6126 19.3466 13.6168 18.8999C13.6189 18.6308 13.7796 18.3912 13.9435 18.1778C15.3032 16.4037 17.2649 15.1844 18.7244 13.4923C18.9303 13.2537 19.0922 12.8227 18.8095 12.6851C18.6414 12.6031 18.448 12.7145 18.2946 12.8206C16.3655 14.1607 14.4374 15.5019 12.5082 16.8419C11.8789 17.2792 11.219 17.729 10.4604 17.8362C9.78159 17.9329 9.09861 17.7437 8.4419 17.5503C7.89132 17.3885 7.34176 17.2224 6.79433 17.0511C6.50328 16.9607 6.20276 16.863 5.9779 16.658C5.75305 16.4531 5.62382 16.1083 5.75937 15.835C5.84448 15.6637 6.00945 15.5555 6.18282 15.4672L6.1849 15.4682Z" fill="#EEEDF2"/>
</svg>
